<svg xmlns="http://www.w3.org/2000/svg" version="1.1" xmlns:xlink="http://www.w3.org/1999/xlink" xmlns:svgjs="http://svgjs.com/svgjs" width="2000" height="560" preserveAspectRatio="none" viewBox="0 0 2000 560">
    <g mask="url(&quot;#SvgjsMask1136&quot;)" fill="none">
        <g mask="url(&quot;#SvgjsMask1137&quot;)">
            <path d="M850.5 262.5L871.5 283.5L892.5 283.5L913.5 283.5L934.5 283.5L955.5 283.5L976.5 283.5L997.5 304.5L1018.5 304.5L1039.5 304.5L1060.5 304.5L1081.5 304.5L1102.5 304.5M997.5 262.5L1018.5 283.5L1039.5 283.5L1060.5 283.5L1081.5 283.5L1102.5 283.5L1123.5 283.5M1165.5 220.5L1186.5 241.5L1207.5 262.5L1228.5 262.5L1249.5 262.5M829.5 262.5L850.5 241.5M682.5 283.5L703.5 304.5L724.5 304.5L745.5 304.5L766.5 304.5L787.5 304.5L808.5 304.5L829.5 304.5M1018.5 262.5L1039.5 262.5M1144.5 220.5L1165.5 241.5L1186.5 262.5L1207.5 283.5L1228.5 283.5L1249.5 304.5L1270.5 304.5M94.5 262.5L115.5 283.5L136.5 283.5L157.5 283.5M556.5 262.5L577.5 283.5L598.5 283.5M388.5 241.5L409.5 241.5L430.5 241.5L451.5 241.5L472.5 241.5L493.5 241.5L514.5 241.5L535.5 241.5L556.5 241.5L577.5 241.5L598.5 241.5L619.5 241.5L640.5 241.5L661.5 241.5L682.5 241.5L703.5 241.5L724.5 241.5L745.5 241.5L766.5 241.5M1039.5 241.5L1060.5 220.5L1081.5 220.5L1102.5 220.5L1123.5 199.5L1144.5 199.5L1165.5 199.5L1186.5 199.5L1207.5 199.5L1228.5 199.5L1249.5 199.5L1270.5 199.5L1291.5 199.5L1312.5 199.5L1333.5 199.5L1354.5 199.5L1375.5 199.5L1396.5 199.5L1417.5 199.5L1438.5 199.5L1459.5 199.5L1480.5 199.5L1501.5 199.5M808.5 262.5L829.5 241.5L850.5 220.5L871.5 220.5L892.5 220.5L913.5 220.5L934.5 199.5M1228.5 241.5L1249.5 220.5L1270.5 220.5M1186.5 220.5L1207.5 220.5L1228.5 220.5M283.5 241.5L304.5 262.5M-10.5 283.5L10.5 283.5L31.5 283.5L52.5 262.5L73.5 262.5L94.5 262.5L115.5 262.5L136.5 262.5L157.5 262.5L178.5 262.5L199.5 262.5L220.5 262.5L241.5 241.5L262.5 241.5L283.5 241.5L304.5 241.5L325.5 241.5L346.5 241.5L367.5 241.5L388.5 241.5L409.5 262.5L430.5 262.5L451.5 262.5L472.5 262.5L493.5 262.5L514.5 262.5L535.5 262.5L556.5 262.5L577.5 262.5L598.5 262.5L619.5 283.5L640.5 283.5L661.5 283.5L682.5 283.5L703.5 283.5L724.5 283.5L745.5 283.5L766.5 262.5L787.5 262.5L808.5 262.5L829.5 262.5L850.5 262.5L871.5 262.5L892.5 262.5L913.5 262.5L934.5 262.5L955.5 262.5L976.5 262.5L997.5 262.5L1018.5 262.5L1039.5 241.5L1060.5 241.5L1081.5 241.5L1102.5 241.5L1123.5 220.5L1144.5 220.5L1165.5 220.5L1186.5 220.5L1207.5 241.5L1228.5 241.5L1249.5 241.5L1270.5 241.5" stroke="rgba(0, 0, 0, 1)" stroke-width="3.5"></path>
            <path d="M1265.25 241.5 a5.25 5.25 0 1 0 10.5 0 a5.25 5.25 0 1 0 -10.5 0zM1097.25 304.5 a5.25 5.25 0 1 0 10.5 0 a5.25 5.25 0 1 0 -10.5 0zM1118.25 283.5 a5.25 5.25 0 1 0 10.5 0 a5.25 5.25 0 1 0 -10.5 0zM1244.25 262.5 a5.25 5.25 0 1 0 10.5 0 a5.25 5.25 0 1 0 -10.5 0zM845.25 241.5 a5.25 5.25 0 1 0 10.5 0 a5.25 5.25 0 1 0 -10.5 0zM824.25 304.5 a5.25 5.25 0 1 0 10.5 0 a5.25 5.25 0 1 0 -10.5 0zM1034.25 262.5 a5.25 5.25 0 1 0 10.5 0 a5.25 5.25 0 1 0 -10.5 0zM1265.25 304.5 a5.25 5.25 0 1 0 10.5 0 a5.25 5.25 0 1 0 -10.5 0zM152.25 283.5 a5.25 5.25 0 1 0 10.5 0 a5.25 5.25 0 1 0 -10.5 0zM593.25 283.5 a5.25 5.25 0 1 0 10.5 0 a5.25 5.25 0 1 0 -10.5 0zM761.25 241.5 a5.25 5.25 0 1 0 10.5 0 a5.25 5.25 0 1 0 -10.5 0zM1496.25 199.5 a5.25 5.25 0 1 0 10.5 0 a5.25 5.25 0 1 0 -10.5 0zM929.25 199.5 a5.25 5.25 0 1 0 10.5 0 a5.25 5.25 0 1 0 -10.5 0zM1265.25 220.5 a5.25 5.25 0 1 0 10.5 0 a5.25 5.25 0 1 0 -10.5 0zM1223.25 220.5 a5.25 5.25 0 1 0 10.5 0 a5.25 5.25 0 1 0 -10.5 0zM299.25 262.5 a5.25 5.25 0 1 0 10.5 0 a5.25 5.25 0 1 0 -10.5 0z" fill="rgba(0, 0, 0, 1)"></path>
            <path d="M556.5 199.5L577.5 220.5M241.5 220.5L262.5 199.5M808.5 199.5L829.5 178.5M388.5 199.5L409.5 220.5L430.5 220.5L451.5 220.5L472.5 220.5L493.5 220.5L514.5 220.5L535.5 220.5L556.5 220.5M199.5 220.5L220.5 199.5L241.5 199.5M640.5 220.5L661.5 199.5L682.5 199.5L703.5 178.5L724.5 178.5L745.5 178.5L766.5 178.5L787.5 178.5L808.5 178.5M304.5 220.5L325.5 199.5L346.5 199.5L367.5 199.5M283.5 220.5L304.5 199.5M178.5 220.5L199.5 241.5L220.5 241.5M766.5 199.5L787.5 220.5L808.5 220.5L829.5 220.5M-10.5 262.5L10.5 262.5L31.5 262.5L52.5 241.5L73.5 241.5L94.5 241.5L115.5 241.5L136.5 241.5L157.5 220.5L178.5 220.5L199.5 220.5L220.5 220.5L241.5 220.5L262.5 220.5L283.5 220.5L304.5 220.5L325.5 220.5L346.5 220.5L367.5 220.5L388.5 199.5L409.5 199.5L430.5 199.5L451.5 199.5L472.5 199.5L493.5 199.5L514.5 199.5L535.5 199.5L556.5 199.5L577.5 199.5L598.5 220.5L619.5 220.5L640.5 220.5L661.5 220.5L682.5 220.5L703.5 199.5L724.5 199.5L745.5 199.5L766.5 199.5L787.5 199.5L808.5 199.5L829.5 199.5" stroke="#3a7cc3" stroke-width="3.5"></path>
            <path d="M824.25 199.5 a5.25 5.25 0 1 0 10.5 0 a5.25 5.25 0 1 0 -10.5 0zM572.25 220.5 a5.25 5.25 0 1 0 10.5 0 a5.25 5.25 0 1 0 -10.5 0zM257.25 199.5 a5.25 5.25 0 1 0 10.5 0 a5.25 5.25 0 1 0 -10.5 0zM824.25 178.5 a5.25 5.25 0 1 0 10.5 0 a5.25 5.25 0 1 0 -10.5 0zM551.25 220.5 a5.25 5.25 0 1 0 10.5 0 a5.25 5.25 0 1 0 -10.5 0zM236.25 199.5 a5.25 5.25 0 1 0 10.5 0 a5.25 5.25 0 1 0 -10.5 0zM803.25 178.5 a5.25 5.25 0 1 0 10.5 0 a5.25 5.25 0 1 0 -10.5 0zM362.25 199.5 a5.25 5.25 0 1 0 10.5 0 a5.25 5.25 0 1 0 -10.5 0zM299.25 199.5 a5.25 5.25 0 1 0 10.5 0 a5.25 5.25 0 1 0 -10.5 0zM215.25 241.5 a5.25 5.25 0 1 0 10.5 0 a5.25 5.25 0 1 0 -10.5 0zM824.25 220.5 a5.25 5.25 0 1 0 10.5 0 a5.25 5.25 0 1 0 -10.5 0z" fill="#3a7cc3"></path>
            <path d="M346.5 304.5L367.5 325.5L388.5 325.5M262.5 304.5L283.5 325.5L304.5 325.5L325.5 325.5M283.5 304.5L304.5 283.5L325.5 283.5M367.5 304.5L388.5 283.5L409.5 283.5M178.5 304.5L199.5 325.5L220.5 325.5L241.5 325.5M73.5 304.5L94.5 283.5M535.5 304.5L556.5 325.5L577.5 325.5L598.5 325.5L619.5 325.5L640.5 325.5L661.5 325.5L682.5 304.5M-10.5 304.5L10.5 304.5L31.5 304.5L52.5 304.5L73.5 304.5L94.5 304.5L115.5 304.5L136.5 304.5L157.5 304.5L178.5 304.5L199.5 304.5L220.5 304.5L241.5 304.5L262.5 304.5L283.5 304.5L304.5 304.5L325.5 304.5L346.5 304.5L367.5 304.5L388.5 304.5L409.5 304.5L430.5 304.5L451.5 304.5L472.5 304.5L493.5 304.5L514.5 304.5L535.5 304.5L556.5 304.5L577.5 304.5L598.5 304.5L619.5 304.5" stroke="rgba(0, 0, 0, 1)" stroke-width="3.5"></path>
            <path d="M614.25 304.5 a5.25 5.25 0 1 0 10.5 0 a5.25 5.25 0 1 0 -10.5 0zM383.25 325.5 a5.25 5.25 0 1 0 10.5 0 a5.25 5.25 0 1 0 -10.5 0zM320.25 325.5 a5.25 5.25 0 1 0 10.5 0 a5.25 5.25 0 1 0 -10.5 0zM320.25 283.5 a5.25 5.25 0 1 0 10.5 0 a5.25 5.25 0 1 0 -10.5 0zM404.25 283.5 a5.25 5.25 0 1 0 10.5 0 a5.25 5.25 0 1 0 -10.5 0zM236.25 325.5 a5.25 5.25 0 1 0 10.5 0 a5.25 5.25 0 1 0 -10.5 0zM89.25 283.5 a5.25 5.25 0 1 0 10.5 0 a5.25 5.25 0 1 0 -10.5 0zM677.25 304.5 a5.25 5.25 0 1 0 10.5 0 a5.25 5.25 0 1 0 -10.5 0z" fill="rgba(0, 0, 0, 1)"></path>
            <path d="M430.5 178.5L451.5 157.5L472.5 157.5L493.5 157.5L514.5 157.5M556.5 157.5L577.5 178.5L598.5 178.5L619.5 178.5L640.5 178.5L661.5 178.5L682.5 178.5M514.5 178.5L535.5 178.5L556.5 178.5M1123.5 136.5L1144.5 157.5L1165.5 157.5L1186.5 157.5L1207.5 157.5L1228.5 157.5L1249.5 157.5L1270.5 157.5L1291.5 157.5L1312.5 157.5L1333.5 157.5L1354.5 178.5L1375.5 178.5L1396.5 178.5L1417.5 157.5L1438.5 157.5M1375.5 157.5L1396.5 136.5L1417.5 115.5L1438.5 115.5L1459.5 115.5L1480.5 115.5L1501.5 115.5L1522.5 115.5L1543.5 115.5L1564.5 115.5L1585.5 115.5L1606.5 115.5L1627.5 115.5L1648.5 115.5L1669.5 115.5L1690.5 115.5L1711.5 115.5L1732.5 115.5L1753.5 115.5M1564.5 136.5L1585.5 157.5L1606.5 157.5L1627.5 178.5L1648.5 178.5L1669.5 178.5L1690.5 178.5L1711.5 178.5L1732.5 178.5L1753.5 178.5L1774.5 178.5L1795.5 178.5L1816.5 178.5M1501.5 136.5L1522.5 157.5L1543.5 178.5L1564.5 178.5L1585.5 178.5L1606.5 178.5L1627.5 199.5L1648.5 199.5L1669.5 199.5L1690.5 199.5L1711.5 199.5M325.5 178.5L346.5 157.5L367.5 157.5L388.5 157.5L409.5 157.5L430.5 157.5M871.5 157.5L892.5 178.5L913.5 178.5M1690.5 136.5L1711.5 157.5L1732.5 157.5L1753.5 157.5L1774.5 157.5L1795.5 157.5L1816.5 157.5L1837.5 157.5L1858.5 157.5L1879.5 157.5L1900.5 157.5L1921.5 157.5L1942.5 157.5L1963.5 178.5M1039.5 157.5L1060.5 136.5L1081.5 136.5M283.5 178.5L304.5 157.5L325.5 157.5M1480.5 136.5L1501.5 157.5M1312.5 136.5L1333.5 115.5L1354.5 115.5L1375.5 115.5L1396.5 115.5M1354.5 157.5L1375.5 136.5M1648.5 136.5L1669.5 157.5M976.5 157.5L997.5 178.5L1018.5 178.5L1039.5 178.5L1060.5 178.5L1081.5 178.5L1102.5 178.5L1123.5 178.5L1144.5 178.5L1165.5 178.5L1186.5 178.5L1207.5 178.5L1228.5 178.5L1249.5 178.5L1270.5 178.5L1291.5 178.5L1312.5 178.5L1333.5 178.5M1018.5 157.5L1039.5 136.5M1102.5 136.5L1123.5 157.5M1543.5 136.5L1564.5 157.5M-10.5 241.5L10.5 241.5L31.5 241.5L52.5 220.5L73.5 220.5L94.5 220.5L115.5 220.5L136.5 220.5L157.5 199.5L178.5 199.5L199.5 178.5L220.5 178.5L241.5 178.5L262.5 178.5L283.5 178.5L304.5 178.5L325.5 178.5L346.5 178.5L367.5 178.5L388.5 178.5L409.5 178.5L430.5 178.5L451.5 178.5L472.5 178.5L493.5 178.5L514.5 178.5L535.5 157.5L556.5 157.5L577.5 157.5L598.5 157.5L619.5 157.5L640.5 157.5L661.5 157.5L682.5 157.5L703.5 157.5L724.5 157.5L745.5 157.5L766.5 157.5L787.5 157.5L808.5 157.5L829.5 157.5L850.5 157.5L871.5 157.5L892.5 157.5L913.5 157.5L934.5 157.5L955.5 157.5L976.5 157.5L997.5 157.5L1018.5 157.5L1039.5 157.5L1060.5 157.5L1081.5 157.5L1102.5 136.5L1123.5 136.5L1144.5 136.5L1165.5 136.5L1186.5 136.5L1207.5 136.5L1228.5 136.5L1249.5 136.5L1270.5 136.5L1291.5 136.5L1312.5 136.5L1333.5 136.5L1354.5 157.5L1375.5 157.5L1396.5 157.5L1417.5 136.5L1438.5 136.5L1459.5 136.5L1480.5 136.5L1501.5 136.5L1522.5 136.5L1543.5 136.5L1564.5 136.5L1585.5 136.5L1606.5 136.5L1627.5 136.5L1648.5 136.5L1669.5 136.5L1690.5 136.5L1711.5 136.5" stroke="rgba(0, 0, 0, 1)" stroke-width="3.5"></path>
            <path d="M1706.25 136.5 a5.25 5.25 0 1 0 10.5 0 a5.25 5.25 0 1 0 -10.5 0zM509.25 157.5 a5.25 5.25 0 1 0 10.5 0 a5.25 5.25 0 1 0 -10.5 0zM677.25 178.5 a5.25 5.25 0 1 0 10.5 0 a5.25 5.25 0 1 0 -10.5 0zM551.25 178.5 a5.25 5.25 0 1 0 10.5 0 a5.25 5.25 0 1 0 -10.5 0zM1433.25 157.5 a5.25 5.25 0 1 0 10.5 0 a5.25 5.25 0 1 0 -10.5 0zM1748.25 115.5 a5.25 5.25 0 1 0 10.5 0 a5.25 5.25 0 1 0 -10.5 0zM1811.25 178.5 a5.25 5.25 0 1 0 10.5 0 a5.25 5.25 0 1 0 -10.5 0zM1706.25 199.5 a5.25 5.25 0 1 0 10.5 0 a5.25 5.25 0 1 0 -10.5 0zM425.25 157.5 a5.25 5.25 0 1 0 10.5 0 a5.25 5.25 0 1 0 -10.5 0zM908.25 178.5 a5.25 5.25 0 1 0 10.5 0 a5.25 5.25 0 1 0 -10.5 0zM1958.25 178.5 a5.25 5.25 0 1 0 10.5 0 a5.25 5.25 0 1 0 -10.5 0zM1076.25 136.5 a5.25 5.25 0 1 0 10.5 0 a5.25 5.25 0 1 0 -10.5 0zM320.25 157.5 a5.25 5.25 0 1 0 10.5 0 a5.25 5.25 0 1 0 -10.5 0zM1496.25 157.5 a5.25 5.25 0 1 0 10.5 0 a5.25 5.25 0 1 0 -10.5 0zM1391.25 115.5 a5.25 5.25 0 1 0 10.5 0 a5.25 5.25 0 1 0 -10.5 0zM1370.25 136.5 a5.25 5.25 0 1 0 10.5 0 a5.25 5.25 0 1 0 -10.5 0zM1664.25 157.5 a5.25 5.25 0 1 0 10.5 0 a5.25 5.25 0 1 0 -10.5 0zM1328.25 178.5 a5.25 5.25 0 1 0 10.5 0 a5.25 5.25 0 1 0 -10.5 0zM1034.25 136.5 a5.25 5.25 0 1 0 10.5 0 a5.25 5.25 0 1 0 -10.5 0zM1118.25 157.5 a5.25 5.25 0 1 0 10.5 0 a5.25 5.25 0 1 0 -10.5 0zM1559.25 157.5 a5.25 5.25 0 1 0 10.5 0 a5.25 5.25 0 1 0 -10.5 0z" fill="rgba(0, 0, 0, 1)"></path>
            <path d="M1123.5 367.5L1144.5 346.5L1165.5 346.5L1186.5 346.5L1207.5 325.5L1228.5 325.5L1249.5 325.5L1270.5 346.5L1291.5 346.5L1312.5 346.5L1333.5 346.5L1354.5 346.5L1375.5 346.5L1396.5 346.5M619.5 346.5L640.5 367.5L661.5 367.5L682.5 367.5L703.5 367.5L724.5 367.5L745.5 367.5L766.5 367.5L787.5 367.5L808.5 367.5L829.5 367.5L850.5 367.5M514.5 346.5L535.5 367.5L556.5 367.5L577.5 367.5L598.5 367.5L619.5 367.5M1165.5 367.5L1186.5 388.5L1207.5 388.5L1228.5 388.5L1249.5 388.5L1270.5 388.5L1291.5 388.5L1312.5 388.5L1333.5 388.5L1354.5 388.5L1375.5 388.5L1396.5 388.5L1417.5 388.5L1438.5 388.5M808.5 346.5L829.5 325.5M682.5 346.5L703.5 325.5M409.5 346.5L430.5 325.5L451.5 325.5M850.5 346.5L871.5 325.5M115.5 325.5L136.5 325.5L157.5 325.5L178.5 325.5M1018.5 346.5L1039.5 367.5M871.5 346.5L892.5 367.5M1144.5 367.5L1165.5 388.5M955.5 346.5L976.5 325.5L997.5 325.5L1018.5 325.5L1039.5 325.5L1060.5 325.5M913.5 346.5L934.5 367.5L955.5 367.5L976.5 367.5L997.5 367.5L1018.5 367.5M1207.5 367.5L1228.5 346.5L1249.5 346.5M934.5 346.5L955.5 325.5L976.5 304.5M-10.5 325.5L10.5 325.5L31.5 325.5L52.5 325.5L73.5 325.5L94.5 325.5L115.5 325.5L136.5 346.5L157.5 346.5L178.5 346.5L199.5 346.5L220.5 346.5L241.5 346.5L262.5 346.5L283.5 346.5L304.5 346.5L325.5 346.5L346.5 346.5L367.5 346.5L388.5 346.5L409.5 346.5L430.5 346.5L451.5 346.5L472.5 346.5L493.5 346.5L514.5 346.5L535.5 346.5L556.5 346.5L577.5 346.5L598.5 346.5L619.5 346.5L640.5 346.5L661.5 346.5L682.5 346.5L703.5 346.5L724.5 325.5L745.5 325.5L766.5 346.5L787.5 346.5L808.5 346.5L829.5 346.5L850.5 346.5L871.5 346.5L892.5 346.5L913.5 346.5L934.5 346.5L955.5 346.5L976.5 346.5L997.5 346.5L1018.5 346.5L1039.5 346.5L1060.5 367.5L1081.5 367.5L1102.5 367.5L1123.5 367.5L1144.5 367.5L1165.5 367.5L1186.5 367.5L1207.5 367.5L1228.5 367.5L1249.5 367.5L1270.5 367.5L1291.5 367.5L1312.5 367.5" stroke="#3a7cc3" stroke-width="3.5"></path>
            <path d="M1307.25 367.5 a5.25 5.25 0 1 0 10.5 0 a5.25 5.25 0 1 0 -10.5 0zM1391.25 346.5 a5.25 5.25 0 1 0 10.5 0 a5.25 5.25 0 1 0 -10.5 0zM845.25 367.5 a5.25 5.25 0 1 0 10.5 0 a5.25 5.25 0 1 0 -10.5 0zM614.25 367.5 a5.25 5.25 0 1 0 10.5 0 a5.25 5.25 0 1 0 -10.5 0zM1433.25 388.5 a5.25 5.25 0 1 0 10.5 0 a5.25 5.25 0 1 0 -10.5 0zM824.25 325.5 a5.25 5.25 0 1 0 10.5 0 a5.25 5.25 0 1 0 -10.5 0zM698.25 325.5 a5.25 5.25 0 1 0 10.5 0 a5.25 5.25 0 1 0 -10.5 0zM446.25 325.5 a5.25 5.25 0 1 0 10.5 0 a5.25 5.25 0 1 0 -10.5 0zM866.25 325.5 a5.25 5.25 0 1 0 10.5 0 a5.25 5.25 0 1 0 -10.5 0zM173.25 325.5 a5.25 5.25 0 1 0 10.5 0 a5.25 5.25 0 1 0 -10.5 0zM1034.25 367.5 a5.25 5.25 0 1 0 10.5 0 a5.25 5.25 0 1 0 -10.5 0zM887.25 367.5 a5.25 5.25 0 1 0 10.5 0 a5.25 5.25 0 1 0 -10.5 0zM1160.25 388.5 a5.25 5.25 0 1 0 10.5 0 a5.25 5.25 0 1 0 -10.5 0zM1055.25 325.5 a5.25 5.25 0 1 0 10.5 0 a5.25 5.25 0 1 0 -10.5 0zM1013.25 367.5 a5.25 5.25 0 1 0 10.5 0 a5.25 5.25 0 1 0 -10.5 0zM1244.25 346.5 a5.25 5.25 0 1 0 10.5 0 a5.25 5.25 0 1 0 -10.5 0zM971.25 304.5 a5.25 5.25 0 1 0 10.5 0 a5.25 5.25 0 1 0 -10.5 0z" fill="#3a7cc3"></path>
            <path d="M640.5 136.5L661.5 115.5L682.5 115.5L703.5 115.5L724.5 115.5L745.5 115.5L766.5 115.5L787.5 115.5L808.5 115.5L829.5 115.5L850.5 115.5L871.5 115.5L892.5 115.5M1165.5 115.5L1186.5 94.5L1207.5 94.5M598.5 136.5L619.5 115.5L640.5 115.5M976.5 115.5L997.5 136.5M1144.5 115.5L1165.5 94.5M955.5 115.5L976.5 136.5M115.5 199.5L136.5 178.5M577.5 136.5L598.5 115.5M262.5 157.5L283.5 157.5M94.5 199.5L115.5 178.5M934.5 136.5L955.5 136.5M-10.5 220.5L10.5 220.5L31.5 220.5L52.5 199.5L73.5 199.5L94.5 199.5L115.5 199.5L136.5 199.5L157.5 178.5L178.5 178.5L199.5 157.5L220.5 157.5L241.5 157.5L262.5 157.5L283.5 136.5L304.5 136.5L325.5 136.5L346.5 136.5L367.5 136.5L388.5 136.5L409.5 136.5L430.5 136.5L451.5 136.5L472.5 136.5L493.5 136.5L514.5 136.5L535.5 136.5L556.5 136.5L577.5 136.5L598.5 136.5L619.5 136.5L640.5 136.5L661.5 136.5L682.5 136.5L703.5 136.5L724.5 136.5L745.5 136.5L766.5 136.5L787.5 136.5L808.5 136.5L829.5 136.5L850.5 136.5L871.5 136.5L892.5 136.5L913.5 136.5L934.5 136.5L955.5 115.5L976.5 115.5L997.5 115.5L1018.5 115.5L1039.5 115.5L1060.5 115.5L1081.5 115.5L1102.5 115.5L1123.5 115.5L1144.5 115.5L1165.5 115.5L1186.5 115.5L1207.5 115.5L1228.5 115.5L1249.5 115.5L1270.5 115.5" stroke="rgba(0, 0, 0, 1)" stroke-width="3.5"></path>
            <path d="M1265.25 115.5 a5.25 5.25 0 1 0 10.5 0 a5.25 5.25 0 1 0 -10.5 0zM887.25 115.5 a5.25 5.25 0 1 0 10.5 0 a5.25 5.25 0 1 0 -10.5 0zM1202.25 94.5 a5.25 5.25 0 1 0 10.5 0 a5.25 5.25 0 1 0 -10.5 0zM635.25 115.5 a5.25 5.25 0 1 0 10.5 0 a5.25 5.25 0 1 0 -10.5 0zM992.25 136.5 a5.25 5.25 0 1 0 10.5 0 a5.25 5.25 0 1 0 -10.5 0zM1160.25 94.5 a5.25 5.25 0 1 0 10.5 0 a5.25 5.25 0 1 0 -10.5 0zM971.25 136.5 a5.25 5.25 0 1 0 10.5 0 a5.25 5.25 0 1 0 -10.5 0zM131.25 178.5 a5.25 5.25 0 1 0 10.5 0 a5.25 5.25 0 1 0 -10.5 0zM593.25 115.5 a5.25 5.25 0 1 0 10.5 0 a5.25 5.25 0 1 0 -10.5 0zM278.25 157.5 a5.25 5.25 0 1 0 10.5 0 a5.25 5.25 0 1 0 -10.5 0zM110.25 178.5 a5.25 5.25 0 1 0 10.5 0 a5.25 5.25 0 1 0 -10.5 0zM950.25 136.5 a5.25 5.25 0 1 0 10.5 0 a5.25 5.25 0 1 0 -10.5 0z" fill="rgba(0, 0, 0, 1)"></path>
            <path d="M640.5 409.5L661.5 388.5L682.5 388.5L703.5 388.5M1039.5 388.5L1060.5 388.5L1081.5 388.5L1102.5 388.5L1123.5 388.5L1144.5 388.5L1165.5 409.5L1186.5 409.5L1207.5 409.5L1228.5 409.5L1249.5 409.5L1270.5 409.5L1291.5 409.5L1312.5 409.5L1333.5 409.5L1354.5 409.5L1375.5 409.5L1396.5 409.5L1417.5 409.5L1438.5 409.5L1459.5 409.5L1480.5 409.5L1501.5 409.5L1522.5 409.5L1543.5 409.5L1564.5 409.5L1585.5 409.5L1606.5 409.5L1627.5 430.5L1648.5 430.5L1669.5 430.5M1543.5 430.5L1564.5 451.5L1585.5 451.5L1606.5 451.5L1627.5 451.5L1648.5 451.5L1669.5 451.5L1690.5 451.5L1711.5 451.5M808.5 388.5L829.5 409.5L850.5 409.5L871.5 409.5L892.5 409.5L913.5 409.5M1459.5 430.5L1480.5 451.5L1501.5 451.5L1522.5 472.5L1543.5 472.5L1564.5 472.5M1333.5 430.5L1354.5 451.5L1375.5 451.5L1396.5 451.5L1417.5 451.5L1438.5 451.5M1186.5 430.5L1207.5 451.5L1228.5 451.5M1123.5 430.5L1144.5 409.5M1249.5 430.5L1270.5 451.5L1291.5 451.5L1312.5 451.5L1333.5 451.5M997.5 388.5L1018.5 409.5M535.5 388.5L556.5 388.5L577.5 388.5L598.5 388.5L619.5 388.5L640.5 388.5M766.5 388.5L787.5 409.5L808.5 409.5M745.5 388.5L766.5 409.5M1081.5 409.5L1102.5 430.5L1123.5 451.5L1144.5 451.5L1165.5 451.5L1186.5 451.5M1060.5 409.5L1081.5 430.5L1102.5 451.5L1123.5 472.5M1102.5 409.5L1123.5 409.5M976.5 388.5L997.5 409.5M955.5 388.5L976.5 409.5M724.5 409.5L745.5 409.5M-10.5 346.5L10.5 346.5L31.5 346.5L52.5 346.5L73.5 346.5L94.5 346.5L115.5 346.5L136.5 367.5L157.5 367.5L178.5 367.5L199.5 367.5L220.5 367.5L241.5 367.5L262.5 367.5L283.5 367.5L304.5 367.5L325.5 367.5L346.5 367.5L367.5 367.5L388.5 367.5L409.5 367.5L430.5 367.5L451.5 367.5L472.5 367.5L493.5 367.5L514.5 388.5L535.5 388.5L556.5 409.5L577.5 409.5L598.5 409.5L619.5 409.5L640.5 409.5L661.5 409.5L682.5 409.5L703.5 409.5L724.5 409.5L745.5 388.5L766.5 388.5L787.5 388.5L808.5 388.5L829.5 388.5L850.5 388.5L871.5 388.5L892.5 388.5L913.5 388.5L934.5 388.5L955.5 388.5L976.5 388.5L997.5 388.5L1018.5 388.5L1039.5 388.5L1060.5 409.5L1081.5 409.5L1102.5 409.5L1123.5 430.5L1144.5 430.5L1165.5 430.5L1186.5 430.5L1207.5 430.5L1228.5 430.5L1249.5 430.5L1270.5 430.5L1291.5 430.5L1312.5 430.5L1333.5 430.5L1354.5 430.5L1375.5 430.5L1396.5 430.5L1417.5 430.5L1438.5 430.5L1459.5 430.5L1480.5 430.5L1501.5 430.5L1522.5 430.5L1543.5 430.5L1564.5 430.5L1585.5 430.5L1606.5 430.5" stroke="#3a7cc3" stroke-width="3.5"></path>
            <path d="M1601.25 430.5 a5.25 5.25 0 1 0 10.5 0 a5.25 5.25 0 1 0 -10.5 0zM698.25 388.5 a5.25 5.25 0 1 0 10.5 0 a5.25 5.25 0 1 0 -10.5 0zM1664.25 430.5 a5.25 5.25 0 1 0 10.5 0 a5.25 5.25 0 1 0 -10.5 0zM1706.25 451.5 a5.25 5.25 0 1 0 10.5 0 a5.25 5.25 0 1 0 -10.5 0zM908.25 409.5 a5.25 5.25 0 1 0 10.5 0 a5.25 5.25 0 1 0 -10.5 0zM1559.25 472.5 a5.25 5.25 0 1 0 10.5 0 a5.25 5.25 0 1 0 -10.5 0zM1433.25 451.5 a5.25 5.25 0 1 0 10.5 0 a5.25 5.25 0 1 0 -10.5 0zM1223.25 451.5 a5.25 5.25 0 1 0 10.5 0 a5.25 5.25 0 1 0 -10.5 0zM1139.25 409.5 a5.25 5.25 0 1 0 10.5 0 a5.25 5.25 0 1 0 -10.5 0zM1328.25 451.5 a5.25 5.25 0 1 0 10.5 0 a5.25 5.25 0 1 0 -10.5 0zM1013.25 409.5 a5.25 5.25 0 1 0 10.5 0 a5.25 5.25 0 1 0 -10.5 0zM635.25 388.5 a5.25 5.25 0 1 0 10.5 0 a5.25 5.25 0 1 0 -10.5 0zM803.25 409.5 a5.25 5.25 0 1 0 10.5 0 a5.25 5.25 0 1 0 -10.5 0zM761.25 409.5 a5.25 5.25 0 1 0 10.5 0 a5.25 5.25 0 1 0 -10.5 0zM1181.25 451.5 a5.25 5.25 0 1 0 10.5 0 a5.25 5.25 0 1 0 -10.5 0zM1118.25 472.5 a5.25 5.25 0 1 0 10.5 0 a5.25 5.25 0 1 0 -10.5 0zM1118.25 409.5 a5.25 5.25 0 1 0 10.5 0 a5.25 5.25 0 1 0 -10.5 0zM992.25 409.5 a5.25 5.25 0 1 0 10.5 0 a5.25 5.25 0 1 0 -10.5 0zM971.25 409.5 a5.25 5.25 0 1 0 10.5 0 a5.25 5.25 0 1 0 -10.5 0zM740.25 409.5 a5.25 5.25 0 1 0 10.5 0 a5.25 5.25 0 1 0 -10.5 0z" fill="#3a7cc3"></path>
            <path d="M73.5 178.5L94.5 178.5M556.5 115.5L577.5 115.5M430.5 115.5L451.5 94.5M-10.5 199.5L10.5 199.5L31.5 199.5L52.5 178.5L73.5 178.5L94.5 157.5L115.5 157.5L136.5 157.5L157.5 157.5L178.5 157.5L199.5 136.5L220.5 136.5L241.5 136.5L262.5 136.5L283.5 115.5L304.5 115.5L325.5 115.5L346.5 115.5L367.5 115.5L388.5 115.5L409.5 115.5L430.5 115.5L451.5 115.5L472.5 115.5L493.5 115.5L514.5 115.5L535.5 115.5L556.5 115.5L577.5 94.5L598.5 94.5L619.5 94.5" stroke="rgba(0, 0, 0, 1)" stroke-width="3.5"></path>
            <path d="M614.25 94.5 a5.25 5.25 0 1 0 10.5 0 a5.25 5.25 0 1 0 -10.5 0zM89.25 178.5 a5.25 5.25 0 1 0 10.5 0 a5.25 5.25 0 1 0 -10.5 0zM572.25 115.5 a5.25 5.25 0 1 0 10.5 0 a5.25 5.25 0 1 0 -10.5 0zM446.25 94.5 a5.25 5.25 0 1 0 10.5 0 a5.25 5.25 0 1 0 -10.5 0z" fill="rgba(0, 0, 0, 1)"></path>
            <path d="M913.5 430.5L934.5 451.5L955.5 451.5L976.5 451.5L997.5 451.5L1018.5 451.5L1039.5 451.5L1060.5 451.5L1081.5 451.5L1102.5 472.5M94.5 367.5L115.5 388.5M10.5 367.5L31.5 388.5L52.5 388.5L73.5 388.5L94.5 388.5M892.5 430.5L913.5 451.5M724.5 430.5L745.5 451.5L766.5 451.5L787.5 451.5M829.5 430.5L850.5 451.5L871.5 451.5L892.5 451.5M934.5 430.5L955.5 409.5M808.5 430.5L829.5 451.5M703.5 430.5L724.5 451.5M-10.5 367.5L10.5 367.5L31.5 367.5L52.5 367.5L73.5 367.5L94.5 367.5L115.5 367.5L136.5 388.5L157.5 388.5L178.5 388.5L199.5 388.5L220.5 388.5L241.5 388.5L262.5 388.5L283.5 388.5L304.5 388.5L325.5 388.5L346.5 388.5L367.5 388.5L388.5 388.5L409.5 388.5L430.5 388.5L451.5 388.5L472.5 388.5L493.5 388.5L514.5 409.5L535.5 409.5L556.5 430.5L577.5 430.5L598.5 430.5L619.5 430.5L640.5 430.5L661.5 430.5L682.5 430.5L703.5 430.5L724.5 430.5L745.5 430.5L766.5 430.5L787.5 430.5L808.5 430.5L829.5 430.5L850.5 430.5L871.5 430.5L892.5 430.5L913.5 430.5L934.5 430.5L955.5 430.5L976.5 430.5L997.5 430.5L1018.5 430.5L1039.5 409.5" stroke="#3a7cc3" stroke-width="3.5"></path>
            <path d="M1034.25 409.5 a5.25 5.25 0 1 0 10.5 0 a5.25 5.25 0 1 0 -10.5 0zM1097.25 472.5 a5.25 5.25 0 1 0 10.5 0 a5.25 5.25 0 1 0 -10.5 0zM110.25 388.5 a5.25 5.25 0 1 0 10.5 0 a5.25 5.25 0 1 0 -10.5 0zM89.25 388.5 a5.25 5.25 0 1 0 10.5 0 a5.25 5.25 0 1 0 -10.5 0zM908.25 451.5 a5.25 5.25 0 1 0 10.5 0 a5.25 5.25 0 1 0 -10.5 0zM782.25 451.5 a5.25 5.25 0 1 0 10.5 0 a5.25 5.25 0 1 0 -10.5 0zM887.25 451.5 a5.25 5.25 0 1 0 10.5 0 a5.25 5.25 0 1 0 -10.5 0zM950.25 409.5 a5.25 5.25 0 1 0 10.5 0 a5.25 5.25 0 1 0 -10.5 0zM824.25 451.5 a5.25 5.25 0 1 0 10.5 0 a5.25 5.25 0 1 0 -10.5 0zM719.25 451.5 a5.25 5.25 0 1 0 10.5 0 a5.25 5.25 0 1 0 -10.5 0z" fill="#3a7cc3"></path>
            <path d="M1438.5 73.5L1459.5 94.5L1480.5 94.5L1501.5 94.5L1522.5 94.5L1543.5 94.5L1564.5 94.5L1585.5 94.5L1606.5 94.5L1627.5 94.5L1648.5 94.5L1669.5 94.5M1354.5 94.5L1375.5 73.5L1396.5 73.5M1039.5 94.5L1060.5 73.5M808.5 73.5L829.5 94.5M1018.5 94.5L1039.5 73.5M787.5 73.5L808.5 94.5M514.5 94.5L535.5 73.5L556.5 73.5M871.5 94.5L892.5 73.5L913.5 73.5L934.5 73.5L955.5 73.5L976.5 73.5L997.5 73.5L1018.5 73.5M850.5 94.5L871.5 73.5M1291.5 94.5L1312.5 73.5L1333.5 73.5L1354.5 73.5M640.5 73.5L661.5 94.5L682.5 94.5M703.5 73.5L724.5 94.5L745.5 94.5L766.5 94.5L787.5 94.5M1417.5 94.5L1438.5 94.5M829.5 73.5L850.5 73.5M913.5 115.5L934.5 94.5M1270.5 94.5L1291.5 73.5M1081.5 94.5L1102.5 73.5L1123.5 73.5M493.5 94.5L514.5 73.5M-10.5 178.5L10.5 178.5L31.5 178.5L52.5 157.5L73.5 157.5L94.5 136.5L115.5 136.5L136.5 136.5L157.5 136.5L178.5 136.5L199.5 115.5L220.5 115.5L241.5 115.5L262.5 115.5L283.5 94.5L304.5 94.5L325.5 94.5L346.5 94.5L367.5 94.5L388.5 94.5L409.5 94.5L430.5 73.5L451.5 73.5L472.5 94.5L493.5 94.5L514.5 94.5L535.5 94.5L556.5 94.5L577.5 73.5L598.5 73.5L619.5 73.5L640.5 73.5L661.5 73.5L682.5 73.5L703.5 73.5L724.5 73.5L745.5 73.5L766.5 73.5L787.5 73.5L808.5 73.5L829.5 73.5L850.5 94.5L871.5 94.5L892.5 94.5L913.5 115.5L934.5 115.5L955.5 94.5L976.5 94.5L997.5 94.5L1018.5 94.5L1039.5 94.5L1060.5 94.5L1081.5 94.5L1102.5 94.5L1123.5 94.5L1144.5 73.5L1165.5 73.5L1186.5 73.5L1207.5 73.5L1228.5 94.5L1249.5 94.5L1270.5 94.5L1291.5 94.5L1312.5 94.5L1333.5 94.5L1354.5 94.5L1375.5 94.5L1396.5 94.5L1417.5 94.5L1438.5 73.5L1459.5 73.5L1480.5 73.5" stroke="rgba(0, 0, 0, 1)" stroke-width="3.5"></path>
            <path d="M1475.25 73.5 a5.25 5.25 0 1 0 10.5 0 a5.25 5.25 0 1 0 -10.5 0zM1664.25 94.5 a5.25 5.25 0 1 0 10.5 0 a5.25 5.25 0 1 0 -10.5 0zM1391.25 73.5 a5.25 5.25 0 1 0 10.5 0 a5.25 5.25 0 1 0 -10.5 0zM1055.25 73.5 a5.25 5.25 0 1 0 10.5 0 a5.25 5.25 0 1 0 -10.5 0zM824.25 94.5 a5.25 5.25 0 1 0 10.5 0 a5.25 5.25 0 1 0 -10.5 0zM1034.25 73.5 a5.25 5.25 0 1 0 10.5 0 a5.25 5.25 0 1 0 -10.5 0zM803.25 94.5 a5.25 5.25 0 1 0 10.5 0 a5.25 5.25 0 1 0 -10.5 0zM551.25 73.5 a5.25 5.25 0 1 0 10.5 0 a5.25 5.25 0 1 0 -10.5 0zM1013.25 73.5 a5.25 5.25 0 1 0 10.5 0 a5.25 5.25 0 1 0 -10.5 0zM866.25 73.5 a5.25 5.25 0 1 0 10.5 0 a5.25 5.25 0 1 0 -10.5 0zM1349.25 73.5 a5.25 5.25 0 1 0 10.5 0 a5.25 5.25 0 1 0 -10.5 0zM677.25 94.5 a5.25 5.25 0 1 0 10.5 0 a5.25 5.25 0 1 0 -10.5 0zM782.25 94.5 a5.25 5.25 0 1 0 10.5 0 a5.25 5.25 0 1 0 -10.5 0zM1433.25 94.5 a5.25 5.25 0 1 0 10.5 0 a5.25 5.25 0 1 0 -10.5 0zM845.25 73.5 a5.25 5.25 0 1 0 10.5 0 a5.25 5.25 0 1 0 -10.5 0zM929.25 94.5 a5.25 5.25 0 1 0 10.5 0 a5.25 5.25 0 1 0 -10.5 0zM1286.25 73.5 a5.25 5.25 0 1 0 10.5 0 a5.25 5.25 0 1 0 -10.5 0zM1118.25 73.5 a5.25 5.25 0 1 0 10.5 0 a5.25 5.25 0 1 0 -10.5 0zM509.25 73.5 a5.25 5.25 0 1 0 10.5 0 a5.25 5.25 0 1 0 -10.5 0z" fill="rgba(0, 0, 0, 1)"></path>
            <path d="M766.5 472.5L787.5 493.5L808.5 493.5L829.5 493.5L850.5 493.5L871.5 493.5L892.5 493.5L913.5 493.5L934.5 514.5L955.5 514.5L976.5 514.5L997.5 514.5L1018.5 514.5L1039.5 514.5L1060.5 514.5L1081.5 514.5L1102.5 514.5M409.5 409.5L430.5 430.5L451.5 430.5L472.5 430.5L493.5 430.5M73.5 409.5L94.5 430.5L115.5 430.5L136.5 430.5M1165.5 472.5L1186.5 493.5L1207.5 493.5L1228.5 493.5L1249.5 493.5L1270.5 493.5L1291.5 493.5L1312.5 493.5L1333.5 493.5L1354.5 514.5L1375.5 514.5L1396.5 514.5L1417.5 514.5L1438.5 514.5L1459.5 514.5M1606.5 472.5L1627.5 493.5L1648.5 493.5L1669.5 493.5L1690.5 472.5L1711.5 472.5L1732.5 472.5L1753.5 472.5L1774.5 472.5L1795.5 472.5L1816.5 472.5L1837.5 472.5L1858.5 472.5L1879.5 472.5L1900.5 472.5L1921.5 472.5L1942.5 472.5L1963.5 472.5M10.5 409.5L31.5 430.5L52.5 430.5L73.5 430.5L94.5 451.5M556.5 451.5L577.5 472.5L598.5 472.5L619.5 472.5L640.5 472.5L661.5 472.5L682.5 493.5L703.5 493.5L724.5 493.5L745.5 493.5L766.5 493.5L787.5 514.5L808.5 514.5L829.5 514.5L850.5 514.5L871.5 514.5L892.5 514.5L913.5 514.5M976.5 472.5L997.5 493.5M220.5 409.5L241.5 430.5L262.5 430.5L283.5 430.5L304.5 430.5L325.5 430.5L346.5 430.5L367.5 430.5L388.5 430.5L409.5 430.5L430.5 451.5L451.5 451.5L472.5 472.5M955.5 472.5L976.5 493.5M934.5 472.5L955.5 493.5M1585.5 472.5L1606.5 493.5L1627.5 514.5M1564.5 493.5L1585.5 493.5L1606.5 514.5M1480.5 493.5L1501.5 472.5M1459.5 493.5L1480.5 472.5M1438.5 493.5L1459.5 472.5M682.5 472.5L703.5 451.5M1375.5 493.5L1396.5 472.5L1417.5 472.5L1438.5 472.5M1522.5 493.5L1543.5 514.5L1564.5 514.5L1585.5 514.5M-10.5 388.5L10.5 409.5L31.5 409.5L52.5 409.5L73.5 409.5L94.5 409.5L115.5 409.5L136.5 409.5L157.5 409.5L178.5 409.5L199.5 409.5L220.5 409.5L241.5 409.5L262.5 409.5L283.5 409.5L304.5 409.5L325.5 409.5L346.5 409.5L367.5 409.5L388.5 409.5L409.5 409.5L430.5 409.5L451.5 409.5L472.5 409.5L493.5 409.5L514.5 430.5L535.5 430.5L556.5 451.5L577.5 451.5L598.5 451.5L619.5 451.5L640.5 451.5L661.5 451.5L682.5 472.5L703.5 472.5L724.5 472.5L745.5 472.5L766.5 472.5L787.5 472.5L808.5 472.5L829.5 472.5L850.5 472.5L871.5 472.5L892.5 472.5L913.5 472.5L934.5 472.5L955.5 472.5L976.5 472.5L997.5 472.5L1018.5 472.5L1039.5 493.5L1060.5 493.5L1081.5 493.5L1102.5 493.5L1123.5 493.5L1144.5 472.5L1165.5 472.5L1186.5 472.5L1207.5 472.5L1228.5 472.5L1249.5 472.5L1270.5 472.5L1291.5 472.5L1312.5 472.5L1333.5 472.5L1354.5 493.5L1375.5 493.5L1396.5 493.5L1417.5 493.5L1438.5 493.5L1459.5 493.5L1480.5 493.5L1501.5 493.5L1522.5 493.5L1543.5 493.5L1564.5 493.5L1585.5 472.5L1606.5 472.5L1627.5 472.5" stroke="rgba(0, 0, 0, 1)" stroke-width="3.5"></path>
            <path d="M1622.25 472.5 a5.25 5.25 0 1 0 10.5 0 a5.25 5.25 0 1 0 -10.5 0zM1097.25 514.5 a5.25 5.25 0 1 0 10.5 0 a5.25 5.25 0 1 0 -10.5 0zM488.25 430.5 a5.25 5.25 0 1 0 10.5 0 a5.25 5.25 0 1 0 -10.5 0zM131.25 430.5 a5.25 5.25 0 1 0 10.5 0 a5.25 5.25 0 1 0 -10.5 0zM1454.25 514.5 a5.25 5.25 0 1 0 10.5 0 a5.25 5.25 0 1 0 -10.5 0zM1958.25 472.5 a5.25 5.25 0 1 0 10.5 0 a5.25 5.25 0 1 0 -10.5 0zM89.25 451.5 a5.25 5.25 0 1 0 10.5 0 a5.25 5.25 0 1 0 -10.5 0zM908.25 514.5 a5.25 5.25 0 1 0 10.5 0 a5.25 5.25 0 1 0 -10.5 0zM992.25 493.5 a5.25 5.25 0 1 0 10.5 0 a5.25 5.25 0 1 0 -10.5 0zM467.25 472.5 a5.25 5.25 0 1 0 10.5 0 a5.25 5.25 0 1 0 -10.5 0zM971.25 493.5 a5.25 5.25 0 1 0 10.5 0 a5.25 5.25 0 1 0 -10.5 0zM950.25 493.5 a5.25 5.25 0 1 0 10.5 0 a5.25 5.25 0 1 0 -10.5 0zM1622.25 514.5 a5.25 5.25 0 1 0 10.5 0 a5.25 5.25 0 1 0 -10.5 0zM1601.25 514.5 a5.25 5.25 0 1 0 10.5 0 a5.25 5.25 0 1 0 -10.5 0zM1496.25 472.5 a5.25 5.25 0 1 0 10.5 0 a5.25 5.25 0 1 0 -10.5 0zM1475.25 472.5 a5.25 5.25 0 1 0 10.5 0 a5.25 5.25 0 1 0 -10.5 0zM1454.25 472.5 a5.25 5.25 0 1 0 10.5 0 a5.25 5.25 0 1 0 -10.5 0zM698.25 451.5 a5.25 5.25 0 1 0 10.5 0 a5.25 5.25 0 1 0 -10.5 0zM1433.25 472.5 a5.25 5.25 0 1 0 10.5 0 a5.25 5.25 0 1 0 -10.5 0zM1580.25 514.5 a5.25 5.25 0 1 0 10.5 0 a5.25 5.25 0 1 0 -10.5 0z" fill="rgba(0, 0, 0, 1)"></path>
            <path d="M472.5 52.5L493.5 73.5M115.5 115.5L136.5 94.5L157.5 73.5M304.5 73.5L325.5 52.5L346.5 52.5L367.5 52.5L388.5 52.5L409.5 52.5M94.5 115.5L115.5 94.5L136.5 73.5L157.5 52.5L178.5 52.5L199.5 52.5L220.5 52.5L241.5 52.5L262.5 52.5M1690.5 73.5L1711.5 73.5L1732.5 73.5M73.5 115.5L94.5 94.5L115.5 73.5M1249.5 52.5L1270.5 73.5M1606.5 73.5L1627.5 52.5L1648.5 52.5L1669.5 52.5L1690.5 52.5L1711.5 52.5L1732.5 52.5L1753.5 52.5L1774.5 52.5L1795.5 52.5L1816.5 52.5L1837.5 52.5M157.5 115.5L178.5 94.5L199.5 73.5L220.5 73.5L241.5 73.5L262.5 73.5M1501.5 52.5L1522.5 73.5M10.5 157.5L31.5 136.5L52.5 115.5L73.5 94.5L94.5 73.5L115.5 52.5L136.5 52.5M1228.5 52.5L1249.5 73.5M1522.5 52.5L1543.5 52.5L1564.5 52.5L1585.5 52.5L1606.5 52.5M52.5 136.5L73.5 136.5M283.5 73.5L304.5 52.5M-10.5 157.5L10.5 157.5L31.5 157.5L52.5 136.5L73.5 115.5L94.5 115.5L115.5 115.5L136.5 115.5L157.5 115.5L178.5 115.5L199.5 94.5L220.5 94.5L241.5 94.5L262.5 94.5L283.5 73.5L304.5 73.5L325.5 73.5L346.5 73.5L367.5 73.5L388.5 73.5L409.5 73.5L430.5 52.5L451.5 52.5L472.5 52.5L493.5 52.5L514.5 52.5L535.5 52.5L556.5 52.5L577.5 52.5L598.5 52.5L619.5 52.5L640.5 52.5L661.5 52.5L682.5 52.5L703.5 52.5L724.5 52.5L745.5 52.5L766.5 52.5L787.5 52.5L808.5 52.5L829.5 52.5L850.5 52.5L871.5 52.5L892.5 52.5L913.5 52.5L934.5 52.5L955.5 52.5L976.5 52.5L997.5 52.5L1018.5 52.5L1039.5 52.5L1060.5 52.5L1081.5 52.5L1102.5 52.5L1123.5 52.5L1144.5 52.5L1165.5 52.5L1186.5 52.5L1207.5 52.5L1228.5 52.5L1249.5 52.5L1270.5 52.5L1291.5 52.5L1312.5 52.5L1333.5 52.5L1354.5 52.5L1375.5 52.5L1396.5 52.5L1417.5 52.5L1438.5 52.5L1459.5 52.5L1480.5 52.5L1501.5 52.5L1522.5 52.5L1543.5 73.5L1564.5 73.5L1585.5 73.5L1606.5 73.5L1627.5 73.5L1648.5 73.5L1669.5 73.5L1690.5 73.5L1711.5 94.5L1732.5 94.5" stroke="rgba(0, 0, 0, 1)" stroke-width="3.5"></path>
            <path d="M1727.25 94.5 a5.25 5.25 0 1 0 10.5 0 a5.25 5.25 0 1 0 -10.5 0zM488.25 73.5 a5.25 5.25 0 1 0 10.5 0 a5.25 5.25 0 1 0 -10.5 0zM152.25 73.5 a5.25 5.25 0 1 0 10.5 0 a5.25 5.25 0 1 0 -10.5 0zM404.25 52.5 a5.25 5.25 0 1 0 10.5 0 a5.25 5.25 0 1 0 -10.5 0zM257.25 52.5 a5.25 5.25 0 1 0 10.5 0 a5.25 5.25 0 1 0 -10.5 0zM1727.25 73.5 a5.25 5.25 0 1 0 10.5 0 a5.25 5.25 0 1 0 -10.5 0zM110.25 73.5 a5.25 5.25 0 1 0 10.5 0 a5.25 5.25 0 1 0 -10.5 0zM1265.25 73.5 a5.25 5.25 0 1 0 10.5 0 a5.25 5.25 0 1 0 -10.5 0zM1832.25 52.5 a5.25 5.25 0 1 0 10.5 0 a5.25 5.25 0 1 0 -10.5 0zM257.25 73.5 a5.25 5.25 0 1 0 10.5 0 a5.25 5.25 0 1 0 -10.5 0zM1517.25 73.5 a5.25 5.25 0 1 0 10.5 0 a5.25 5.25 0 1 0 -10.5 0zM131.25 52.5 a5.25 5.25 0 1 0 10.5 0 a5.25 5.25 0 1 0 -10.5 0zM1244.25 73.5 a5.25 5.25 0 1 0 10.5 0 a5.25 5.25 0 1 0 -10.5 0zM1601.25 52.5 a5.25 5.25 0 1 0 10.5 0 a5.25 5.25 0 1 0 -10.5 0zM68.25 136.5 a5.25 5.25 0 1 0 10.5 0 a5.25 5.25 0 1 0 -10.5 0zM299.25 52.5 a5.25 5.25 0 1 0 10.5 0 a5.25 5.25 0 1 0 -10.5 0z" fill="rgba(0, 0, 0, 1)"></path>
        </g>
    </g>
    <defs>
        <mask id="SvgjsMask1136">
            <rect width="2000" height="560" fill="#ffffff"></rect>
        </mask>
        <mask id="SvgjsMask1137">
            <rect width="2000" height="560" fill="white"></rect>
            <path d="M1267.87 241.5 a2.63 2.63 0 1 0 5.26 0 a2.63 2.63 0 1 0 -5.26 0zM1099.87 304.5 a2.63 2.63 0 1 0 5.26 0 a2.63 2.63 0 1 0 -5.26 0zM1120.87 283.5 a2.63 2.63 0 1 0 5.26 0 a2.63 2.63 0 1 0 -5.26 0zM1246.87 262.5 a2.63 2.63 0 1 0 5.26 0 a2.63 2.63 0 1 0 -5.26 0zM847.87 241.5 a2.63 2.63 0 1 0 5.26 0 a2.63 2.63 0 1 0 -5.26 0zM826.87 304.5 a2.63 2.63 0 1 0 5.26 0 a2.63 2.63 0 1 0 -5.26 0zM1036.87 262.5 a2.63 2.63 0 1 0 5.26 0 a2.63 2.63 0 1 0 -5.26 0zM1267.87 304.5 a2.63 2.63 0 1 0 5.26 0 a2.63 2.63 0 1 0 -5.26 0zM154.87 283.5 a2.63 2.63 0 1 0 5.26 0 a2.63 2.63 0 1 0 -5.26 0zM595.87 283.5 a2.63 2.63 0 1 0 5.26 0 a2.63 2.63 0 1 0 -5.26 0zM763.87 241.5 a2.63 2.63 0 1 0 5.26 0 a2.63 2.63 0 1 0 -5.26 0zM1498.87 199.5 a2.63 2.63 0 1 0 5.26 0 a2.63 2.63 0 1 0 -5.26 0zM931.87 199.5 a2.63 2.63 0 1 0 5.26 0 a2.63 2.63 0 1 0 -5.26 0zM1267.87 220.5 a2.63 2.63 0 1 0 5.26 0 a2.63 2.63 0 1 0 -5.26 0zM1225.87 220.5 a2.63 2.63 0 1 0 5.26 0 a2.63 2.63 0 1 0 -5.26 0zM301.87 262.5 a2.63 2.63 0 1 0 5.26 0 a2.63 2.63 0 1 0 -5.26 0z" fill="black"></path>
            <path d="M826.87 199.5 a2.63 2.63 0 1 0 5.26 0 a2.63 2.63 0 1 0 -5.26 0zM574.87 220.5 a2.63 2.63 0 1 0 5.26 0 a2.63 2.63 0 1 0 -5.26 0zM259.87 199.5 a2.63 2.63 0 1 0 5.26 0 a2.63 2.63 0 1 0 -5.26 0zM826.87 178.5 a2.63 2.63 0 1 0 5.26 0 a2.63 2.63 0 1 0 -5.26 0zM553.87 220.5 a2.63 2.63 0 1 0 5.26 0 a2.63 2.63 0 1 0 -5.26 0zM238.87 199.5 a2.63 2.63 0 1 0 5.26 0 a2.63 2.63 0 1 0 -5.26 0zM805.87 178.5 a2.63 2.63 0 1 0 5.26 0 a2.63 2.63 0 1 0 -5.26 0zM364.87 199.5 a2.63 2.63 0 1 0 5.26 0 a2.63 2.63 0 1 0 -5.26 0zM301.87 199.5 a2.63 2.63 0 1 0 5.26 0 a2.63 2.63 0 1 0 -5.26 0zM217.87 241.5 a2.63 2.63 0 1 0 5.26 0 a2.63 2.63 0 1 0 -5.26 0zM826.87 220.5 a2.63 2.63 0 1 0 5.26 0 a2.63 2.63 0 1 0 -5.26 0z" fill="black"></path>
            <path d="M616.87 304.5 a2.63 2.63 0 1 0 5.26 0 a2.63 2.63 0 1 0 -5.26 0zM385.87 325.5 a2.63 2.63 0 1 0 5.26 0 a2.63 2.63 0 1 0 -5.26 0zM322.87 325.5 a2.63 2.63 0 1 0 5.26 0 a2.63 2.63 0 1 0 -5.26 0zM322.87 283.5 a2.63 2.63 0 1 0 5.26 0 a2.63 2.63 0 1 0 -5.26 0zM406.87 283.5 a2.63 2.63 0 1 0 5.26 0 a2.63 2.63 0 1 0 -5.26 0zM238.87 325.5 a2.63 2.63 0 1 0 5.26 0 a2.63 2.63 0 1 0 -5.26 0zM91.87 283.5 a2.63 2.63 0 1 0 5.26 0 a2.63 2.63 0 1 0 -5.26 0zM679.87 304.5 a2.63 2.63 0 1 0 5.26 0 a2.63 2.63 0 1 0 -5.26 0z" fill="black"></path>
            <path d="M1708.87 136.5 a2.63 2.63 0 1 0 5.26 0 a2.63 2.63 0 1 0 -5.26 0zM511.87 157.5 a2.63 2.63 0 1 0 5.26 0 a2.63 2.63 0 1 0 -5.26 0zM679.87 178.5 a2.63 2.63 0 1 0 5.26 0 a2.63 2.63 0 1 0 -5.26 0zM553.87 178.5 a2.63 2.63 0 1 0 5.26 0 a2.63 2.63 0 1 0 -5.26 0zM1435.87 157.5 a2.63 2.63 0 1 0 5.26 0 a2.63 2.63 0 1 0 -5.26 0zM1750.87 115.5 a2.63 2.63 0 1 0 5.26 0 a2.63 2.63 0 1 0 -5.26 0zM1813.87 178.5 a2.63 2.63 0 1 0 5.26 0 a2.63 2.63 0 1 0 -5.26 0zM1708.87 199.5 a2.63 2.63 0 1 0 5.26 0 a2.63 2.63 0 1 0 -5.26 0zM427.87 157.5 a2.63 2.63 0 1 0 5.26 0 a2.63 2.63 0 1 0 -5.26 0zM910.87 178.5 a2.63 2.63 0 1 0 5.26 0 a2.63 2.63 0 1 0 -5.26 0zM1960.87 178.5 a2.63 2.63 0 1 0 5.26 0 a2.63 2.63 0 1 0 -5.26 0zM1078.87 136.5 a2.63 2.63 0 1 0 5.26 0 a2.63 2.63 0 1 0 -5.26 0zM322.87 157.5 a2.63 2.63 0 1 0 5.26 0 a2.63 2.63 0 1 0 -5.26 0zM1498.87 157.5 a2.63 2.63 0 1 0 5.26 0 a2.63 2.63 0 1 0 -5.26 0zM1393.87 115.5 a2.63 2.63 0 1 0 5.26 0 a2.63 2.63 0 1 0 -5.26 0zM1372.87 136.5 a2.63 2.63 0 1 0 5.26 0 a2.63 2.63 0 1 0 -5.26 0zM1666.87 157.5 a2.63 2.63 0 1 0 5.26 0 a2.63 2.63 0 1 0 -5.26 0zM1330.87 178.5 a2.63 2.63 0 1 0 5.26 0 a2.63 2.63 0 1 0 -5.26 0zM1036.87 136.5 a2.63 2.63 0 1 0 5.26 0 a2.63 2.63 0 1 0 -5.26 0zM1120.87 157.5 a2.63 2.63 0 1 0 5.26 0 a2.63 2.63 0 1 0 -5.26 0zM1561.87 157.5 a2.63 2.63 0 1 0 5.26 0 a2.63 2.63 0 1 0 -5.26 0z" fill="black"></path>
            <path d="M1309.87 367.5 a2.63 2.63 0 1 0 5.26 0 a2.63 2.63 0 1 0 -5.26 0zM1393.87 346.5 a2.63 2.63 0 1 0 5.26 0 a2.63 2.63 0 1 0 -5.26 0zM847.87 367.5 a2.63 2.63 0 1 0 5.26 0 a2.63 2.63 0 1 0 -5.26 0zM616.87 367.5 a2.63 2.63 0 1 0 5.26 0 a2.63 2.63 0 1 0 -5.26 0zM1435.87 388.5 a2.63 2.63 0 1 0 5.26 0 a2.63 2.63 0 1 0 -5.26 0zM826.87 325.5 a2.63 2.63 0 1 0 5.26 0 a2.63 2.63 0 1 0 -5.26 0zM700.87 325.5 a2.63 2.63 0 1 0 5.26 0 a2.63 2.63 0 1 0 -5.26 0zM448.87 325.5 a2.63 2.63 0 1 0 5.26 0 a2.63 2.63 0 1 0 -5.26 0zM868.87 325.5 a2.63 2.63 0 1 0 5.26 0 a2.63 2.63 0 1 0 -5.26 0zM175.87 325.5 a2.63 2.63 0 1 0 5.26 0 a2.63 2.63 0 1 0 -5.26 0zM1036.87 367.5 a2.63 2.63 0 1 0 5.26 0 a2.63 2.63 0 1 0 -5.26 0zM889.87 367.5 a2.63 2.63 0 1 0 5.26 0 a2.63 2.63 0 1 0 -5.26 0zM1162.87 388.5 a2.63 2.63 0 1 0 5.26 0 a2.63 2.63 0 1 0 -5.26 0zM1057.87 325.5 a2.63 2.63 0 1 0 5.26 0 a2.63 2.63 0 1 0 -5.26 0zM1015.87 367.5 a2.63 2.63 0 1 0 5.26 0 a2.63 2.63 0 1 0 -5.26 0zM1246.87 346.5 a2.63 2.63 0 1 0 5.26 0 a2.63 2.63 0 1 0 -5.26 0zM973.87 304.5 a2.63 2.63 0 1 0 5.26 0 a2.63 2.63 0 1 0 -5.26 0z" fill="black"></path>
            <path d="M1267.87 115.5 a2.63 2.63 0 1 0 5.26 0 a2.63 2.63 0 1 0 -5.26 0zM889.87 115.5 a2.63 2.63 0 1 0 5.26 0 a2.63 2.63 0 1 0 -5.26 0zM1204.87 94.5 a2.63 2.63 0 1 0 5.26 0 a2.63 2.63 0 1 0 -5.26 0zM637.87 115.5 a2.63 2.63 0 1 0 5.26 0 a2.63 2.63 0 1 0 -5.26 0zM994.87 136.5 a2.63 2.63 0 1 0 5.26 0 a2.63 2.63 0 1 0 -5.26 0zM1162.87 94.5 a2.63 2.63 0 1 0 5.26 0 a2.63 2.63 0 1 0 -5.26 0zM973.87 136.5 a2.63 2.63 0 1 0 5.26 0 a2.63 2.63 0 1 0 -5.26 0zM133.87 178.5 a2.63 2.63 0 1 0 5.26 0 a2.63 2.63 0 1 0 -5.26 0zM595.87 115.5 a2.63 2.63 0 1 0 5.26 0 a2.63 2.63 0 1 0 -5.26 0zM280.87 157.5 a2.63 2.63 0 1 0 5.26 0 a2.63 2.63 0 1 0 -5.26 0zM112.87 178.5 a2.63 2.63 0 1 0 5.26 0 a2.63 2.63 0 1 0 -5.26 0zM952.87 136.5 a2.63 2.63 0 1 0 5.26 0 a2.63 2.63 0 1 0 -5.26 0z" fill="black"></path>
            <path d="M1603.87 430.5 a2.63 2.63 0 1 0 5.26 0 a2.63 2.63 0 1 0 -5.26 0zM700.87 388.5 a2.63 2.63 0 1 0 5.26 0 a2.63 2.63 0 1 0 -5.26 0zM1666.87 430.5 a2.63 2.63 0 1 0 5.26 0 a2.63 2.63 0 1 0 -5.26 0zM1708.87 451.5 a2.63 2.63 0 1 0 5.26 0 a2.63 2.63 0 1 0 -5.26 0zM910.87 409.5 a2.63 2.63 0 1 0 5.26 0 a2.63 2.63 0 1 0 -5.26 0zM1561.87 472.5 a2.63 2.63 0 1 0 5.26 0 a2.63 2.63 0 1 0 -5.26 0zM1435.87 451.5 a2.63 2.63 0 1 0 5.26 0 a2.63 2.63 0 1 0 -5.26 0zM1225.87 451.5 a2.63 2.63 0 1 0 5.26 0 a2.63 2.63 0 1 0 -5.26 0zM1141.87 409.5 a2.63 2.63 0 1 0 5.26 0 a2.63 2.63 0 1 0 -5.26 0zM1330.87 451.5 a2.63 2.63 0 1 0 5.26 0 a2.63 2.63 0 1 0 -5.26 0zM1015.87 409.5 a2.63 2.63 0 1 0 5.26 0 a2.63 2.63 0 1 0 -5.26 0zM637.87 388.5 a2.63 2.63 0 1 0 5.26 0 a2.63 2.63 0 1 0 -5.26 0zM805.87 409.5 a2.63 2.63 0 1 0 5.26 0 a2.63 2.63 0 1 0 -5.26 0zM763.87 409.5 a2.63 2.63 0 1 0 5.26 0 a2.63 2.63 0 1 0 -5.26 0zM1183.87 451.5 a2.63 2.63 0 1 0 5.26 0 a2.63 2.63 0 1 0 -5.26 0zM1120.87 472.5 a2.63 2.63 0 1 0 5.26 0 a2.63 2.63 0 1 0 -5.26 0zM1120.87 409.5 a2.63 2.63 0 1 0 5.26 0 a2.63 2.63 0 1 0 -5.26 0zM994.87 409.5 a2.63 2.63 0 1 0 5.26 0 a2.63 2.63 0 1 0 -5.26 0zM973.87 409.5 a2.63 2.63 0 1 0 5.26 0 a2.63 2.63 0 1 0 -5.26 0zM742.87 409.5 a2.63 2.63 0 1 0 5.26 0 a2.63 2.63 0 1 0 -5.26 0z" fill="black"></path>
            <path d="M616.87 94.5 a2.63 2.63 0 1 0 5.26 0 a2.63 2.63 0 1 0 -5.26 0zM91.87 178.5 a2.63 2.63 0 1 0 5.26 0 a2.63 2.63 0 1 0 -5.26 0zM574.87 115.5 a2.63 2.63 0 1 0 5.26 0 a2.63 2.63 0 1 0 -5.26 0zM448.87 94.5 a2.63 2.63 0 1 0 5.26 0 a2.63 2.63 0 1 0 -5.26 0z" fill="black"></path>
            <path d="M1036.87 409.5 a2.63 2.63 0 1 0 5.26 0 a2.63 2.63 0 1 0 -5.26 0zM1099.87 472.5 a2.63 2.63 0 1 0 5.26 0 a2.63 2.63 0 1 0 -5.26 0zM112.87 388.5 a2.63 2.63 0 1 0 5.26 0 a2.63 2.63 0 1 0 -5.26 0zM91.87 388.5 a2.63 2.63 0 1 0 5.26 0 a2.63 2.63 0 1 0 -5.26 0zM910.87 451.5 a2.63 2.63 0 1 0 5.26 0 a2.63 2.63 0 1 0 -5.26 0zM784.87 451.5 a2.63 2.63 0 1 0 5.26 0 a2.63 2.63 0 1 0 -5.26 0zM889.87 451.5 a2.63 2.63 0 1 0 5.26 0 a2.63 2.63 0 1 0 -5.26 0zM952.87 409.5 a2.63 2.63 0 1 0 5.26 0 a2.63 2.63 0 1 0 -5.26 0zM826.87 451.5 a2.63 2.63 0 1 0 5.26 0 a2.63 2.63 0 1 0 -5.26 0zM721.87 451.5 a2.63 2.63 0 1 0 5.26 0 a2.63 2.63 0 1 0 -5.26 0z" fill="black"></path>
            <path d="M1477.87 73.5 a2.63 2.63 0 1 0 5.26 0 a2.63 2.63 0 1 0 -5.26 0zM1666.87 94.5 a2.63 2.63 0 1 0 5.26 0 a2.63 2.63 0 1 0 -5.26 0zM1393.87 73.5 a2.63 2.63 0 1 0 5.26 0 a2.63 2.63 0 1 0 -5.26 0zM1057.87 73.5 a2.63 2.63 0 1 0 5.26 0 a2.63 2.63 0 1 0 -5.26 0zM826.87 94.5 a2.63 2.63 0 1 0 5.26 0 a2.63 2.63 0 1 0 -5.26 0zM1036.87 73.5 a2.63 2.63 0 1 0 5.26 0 a2.63 2.63 0 1 0 -5.26 0zM805.87 94.5 a2.63 2.63 0 1 0 5.26 0 a2.63 2.63 0 1 0 -5.26 0zM553.87 73.5 a2.63 2.63 0 1 0 5.26 0 a2.63 2.63 0 1 0 -5.26 0zM1015.87 73.5 a2.63 2.63 0 1 0 5.26 0 a2.63 2.63 0 1 0 -5.26 0zM868.87 73.5 a2.63 2.63 0 1 0 5.26 0 a2.63 2.63 0 1 0 -5.26 0zM1351.87 73.5 a2.63 2.63 0 1 0 5.26 0 a2.63 2.63 0 1 0 -5.26 0zM679.87 94.5 a2.63 2.63 0 1 0 5.26 0 a2.63 2.63 0 1 0 -5.26 0zM784.87 94.5 a2.63 2.63 0 1 0 5.26 0 a2.63 2.63 0 1 0 -5.26 0zM1435.87 94.5 a2.63 2.63 0 1 0 5.26 0 a2.63 2.63 0 1 0 -5.26 0zM847.87 73.5 a2.63 2.63 0 1 0 5.26 0 a2.63 2.63 0 1 0 -5.26 0zM931.87 94.5 a2.63 2.63 0 1 0 5.26 0 a2.63 2.63 0 1 0 -5.26 0zM1288.87 73.5 a2.63 2.63 0 1 0 5.26 0 a2.63 2.63 0 1 0 -5.26 0zM1120.87 73.5 a2.63 2.63 0 1 0 5.26 0 a2.63 2.63 0 1 0 -5.26 0zM511.87 73.5 a2.63 2.63 0 1 0 5.26 0 a2.63 2.63 0 1 0 -5.26 0z" fill="black"></path>
            <path d="M1624.87 472.5 a2.63 2.63 0 1 0 5.26 0 a2.63 2.63 0 1 0 -5.26 0zM1099.87 514.5 a2.63 2.63 0 1 0 5.26 0 a2.63 2.63 0 1 0 -5.26 0zM490.87 430.5 a2.63 2.63 0 1 0 5.26 0 a2.63 2.63 0 1 0 -5.26 0zM133.87 430.5 a2.63 2.63 0 1 0 5.26 0 a2.63 2.63 0 1 0 -5.26 0zM1456.87 514.5 a2.63 2.63 0 1 0 5.26 0 a2.63 2.63 0 1 0 -5.26 0zM1960.87 472.5 a2.63 2.63 0 1 0 5.26 0 a2.63 2.63 0 1 0 -5.26 0zM91.87 451.5 a2.63 2.63 0 1 0 5.26 0 a2.63 2.63 0 1 0 -5.26 0zM910.87 514.5 a2.63 2.63 0 1 0 5.26 0 a2.63 2.63 0 1 0 -5.26 0zM994.87 493.5 a2.63 2.63 0 1 0 5.26 0 a2.63 2.63 0 1 0 -5.26 0zM469.87 472.5 a2.63 2.63 0 1 0 5.26 0 a2.63 2.63 0 1 0 -5.26 0zM973.87 493.5 a2.63 2.63 0 1 0 5.26 0 a2.63 2.63 0 1 0 -5.26 0zM952.87 493.5 a2.63 2.63 0 1 0 5.26 0 a2.63 2.63 0 1 0 -5.26 0zM1624.87 514.5 a2.63 2.63 0 1 0 5.26 0 a2.63 2.63 0 1 0 -5.26 0zM1603.87 514.5 a2.63 2.63 0 1 0 5.26 0 a2.63 2.63 0 1 0 -5.26 0zM1498.87 472.5 a2.63 2.63 0 1 0 5.26 0 a2.63 2.63 0 1 0 -5.26 0zM1477.87 472.5 a2.63 2.63 0 1 0 5.26 0 a2.63 2.63 0 1 0 -5.26 0zM1456.87 472.5 a2.63 2.63 0 1 0 5.26 0 a2.63 2.63 0 1 0 -5.26 0zM700.87 451.5 a2.63 2.63 0 1 0 5.26 0 a2.63 2.63 0 1 0 -5.26 0zM1435.87 472.5 a2.63 2.63 0 1 0 5.26 0 a2.63 2.63 0 1 0 -5.26 0zM1582.87 514.5 a2.63 2.63 0 1 0 5.26 0 a2.63 2.63 0 1 0 -5.26 0z" fill="black"></path>
            <path d="M1729.87 94.5 a2.63 2.63 0 1 0 5.26 0 a2.63 2.63 0 1 0 -5.26 0zM490.87 73.5 a2.63 2.63 0 1 0 5.26 0 a2.63 2.63 0 1 0 -5.26 0zM154.87 73.5 a2.63 2.63 0 1 0 5.26 0 a2.63 2.63 0 1 0 -5.26 0zM406.87 52.5 a2.63 2.63 0 1 0 5.26 0 a2.63 2.63 0 1 0 -5.26 0zM259.87 52.5 a2.63 2.63 0 1 0 5.26 0 a2.63 2.63 0 1 0 -5.26 0zM1729.87 73.5 a2.63 2.63 0 1 0 5.26 0 a2.63 2.63 0 1 0 -5.26 0zM112.87 73.5 a2.63 2.63 0 1 0 5.26 0 a2.63 2.63 0 1 0 -5.26 0zM1267.87 73.5 a2.63 2.63 0 1 0 5.26 0 a2.63 2.63 0 1 0 -5.26 0zM1834.87 52.5 a2.63 2.63 0 1 0 5.26 0 a2.63 2.63 0 1 0 -5.26 0zM259.87 73.5 a2.63 2.63 0 1 0 5.26 0 a2.63 2.63 0 1 0 -5.26 0zM1519.87 73.5 a2.63 2.63 0 1 0 5.26 0 a2.63 2.63 0 1 0 -5.26 0zM133.87 52.5 a2.63 2.63 0 1 0 5.26 0 a2.63 2.63 0 1 0 -5.26 0zM1246.87 73.5 a2.63 2.63 0 1 0 5.26 0 a2.63 2.63 0 1 0 -5.26 0zM1603.87 52.5 a2.63 2.63 0 1 0 5.26 0 a2.63 2.63 0 1 0 -5.26 0zM70.87 136.5 a2.63 2.63 0 1 0 5.26 0 a2.63 2.63 0 1 0 -5.26 0zM301.87 52.5 a2.63 2.63 0 1 0 5.26 0 a2.63 2.63 0 1 0 -5.26 0z" fill="black"></path>
        </mask>
    </defs>
</svg>